<?xml version="1.0" encoding="UTF-8"?>
<svg version="1.1" xmlns="http://www.w3.org/2000/svg" width="287" height="330">
<path d="M0 0 C94.71 0 189.42 0 287 0 C287 108.9 287 217.8 287 330 C192.29 330 97.58 330 0 330 C0 221.1 0 112.2 0 0 Z " fill="#51616D" transform="translate(0,0)"/>
<path d="M0 0 C94.71 0 189.42 0 287 0 C287 108.9 287 217.8 287 330 C192.29 330 97.58 330 0 330 C0 221.1 0 112.2 0 0 Z M136.03515625 6.421875 C135.08141113 6.94676514 134.12766602 7.47165527 133.14501953 8.01245117 C132.12778809 8.58584229 131.11055664 9.1592334 130.0625 9.75 C129.00144043 10.33692627 127.94038086 10.92385254 126.84716797 11.52856445 C124.64190307 12.74841811 122.4387963 13.97218084 120.23779297 15.19970703 C116.29536934 17.39179207 112.3336142 19.54682885 108.36889648 21.69824219 C100.16112166 26.15303589 91.98362044 30.66066477 83.82885742 35.21166992 C79.76199372 37.47775833 75.68342623 39.71999244 71.58984375 41.9375 C62.22110362 47.01270823 52.93200151 52.16270041 43.7824707 57.62402344 C38.87853348 60.53278659 33.88142382 63.15095275 28.75390625 65.6484375 C25.11622617 67.43373865 21.54663255 69.30900526 18.03378582 71.32931519 C15 73 15 73 11.66492176 74.49075317 C4.71803252 77.89407784 4.71803252 77.89407784 0.82259178 84.36175537 C0.39470773 88.6464879 0.38826672 92.75881731 0.52416992 97.0546875 C0.52784084 98.68145959 0.52577077 100.3082532 0.51841736 101.93501282 C0.51469782 106.33506377 0.59092415 110.7304763 0.68187881 115.12945175 C0.76333872 119.73229976 0.77079681 124.33526311 0.78620911 128.9387207 C0.82656082 137.64826285 0.93315872 146.35567497 1.06375247 155.06428051 C1.20923463 164.98175061 1.28057853 174.89932434 1.34579313 184.81759644 C1.48155255 205.21291832 1.71009944 225.60632481 2 246 C3.67022469 246.9528463 3.67022469 246.9528463 5.37419128 247.92494202 C7.80762345 249.31319046 10.22566486 250.71751351 12.61328125 252.18359375 C18.8621329 255.99301394 25.07415022 259.64888878 31.67578125 262.82421875 C35.07042085 264.54150702 38.26971251 266.55251435 41.51171875 268.5390625 C43.9022451 269.94260545 46.31565548 271.172965 48.8125 272.375 C52.87383266 274.35147272 56.67162775 276.60334024 60.5 279 C65.86878832 282.35313797 71.29161021 285.27794376 77 288 C88.44032605 293.49436712 88.44032605 293.49436712 93.6875 297.1875 C97.87279441 300.10800763 102.09423497 301.67787893 107 303 C107 303.66 107 304.32 107 305 C107.70495605 305.39268066 108.40991211 305.78536133 109.13623047 306.18994141 C112.3834182 307.99996267 115.62921435 309.81246577 118.875 311.625 C119.98359375 312.24246094 121.0921875 312.85992187 122.234375 313.49609375 C123.87792969 314.41455078 123.87792969 314.41455078 125.5546875 315.3515625 C126.64233398 315.95774414 127.72998047 316.56392578 128.85058594 317.18847656 C132.58684592 319.33755013 136.2014445 321.65112532 139.78564453 324.04443359 C142.63693685 325.27485897 144.0744456 324.92622815 147 324 C149.16550239 322.77745055 151.28851233 321.47799556 153.375 320.125 C156.68276295 317.98561156 159.78306139 316.091839 163.4140625 314.5546875 C167.58006846 312.74851062 171.20508135 310.47178609 175 308 C182.49967865 303.11515183 182.49967865 303.11515183 186.70703125 301.3828125 C189.70225152 300.12503317 192.05750156 298.75424485 194.6875 296.875 C197.50087268 294.86616196 199.64177564 293.75830873 203 293 C203.45375 292.525625 203.9075 292.05125 204.375 291.5625 C206.62538002 289.39867306 209.04092468 288.85484398 212 288 C212 287.34 212 286.68 212 286 C212.71969971 285.72542969 213.43939941 285.45085937 214.1809082 285.16796875 C216.93329449 284.02763654 219.48951672 282.73588208 222.10546875 281.3125 C223.56617798 280.51984741 223.56617798 280.51984741 225.05639648 279.71118164 C226.60629272 278.86414673 226.60629272 278.86414673 228.1875 278 C229.26394775 277.41404053 230.34039551 276.82808105 231.44946289 276.22436523 C249.04861991 266.63017595 266.51087361 256.79391078 284 247 C284 191.89 284 136.78 284 80 C283.01 80 282.02 80 281 80 C281 79.34 281 78.68 281 78 C279.98679687 77.58363281 278.97359375 77.16726562 277.9296875 76.73828125 C274.18560562 75.13059461 270.65350765 73.21922088 267.125 71.1875 C265.71900001 70.38758123 264.31273093 69.58813533 262.90625 68.7890625 C261.74609375 68.12825684 261.74609375 68.12825684 260.5625 67.45410156 C255.59537699 64.63548641 250.6089259 61.85125938 245.625 59.0625 C244.53944824 58.4547876 243.45389648 57.8470752 242.33544922 57.22094727 C230.99426524 50.87380381 219.63964266 44.55207076 208.25390625 38.28515625 C205.77334261 36.9194431 203.29290216 35.5535064 200.8125 34.1875 C200.18956055 33.84453888 199.56662109 33.50157776 198.92480469 33.14822388 C190.5009831 28.50866018 182.11097141 23.81470934 173.75 19.0625 C166.98129707 15.22927295 160.21007898 11.40140541 153.375 7.6875 C152.69405273 7.30795166 152.01310547 6.92840332 151.31152344 6.53735352 C145.37870681 3.35667937 141.89713094 3.15127916 136.03515625 6.421875 Z " fill="#19232C" transform="translate(0,0)"/>
<path d="M0 0 C-0.0194089 5.48168328 -0.07108974 10.9617586 -0.15258789 16.44287109 C-0.17577245 18.30703976 -0.1901647 20.1713395 -0.19555664 22.03564453 C-0.20484315 24.71730265 -0.24582419 27.39689806 -0.29296875 30.078125 C-0.2890361 30.91055725 -0.28510345 31.7429895 -0.28105164 32.60064697 C-0.4268068 38.39214486 -0.4268068 38.39214486 -3.25683594 41.39331055 C-4.16208008 41.92351807 -5.06732422 42.45372559 -6 43 C-7.12353882 43.68364624 -7.12353882 43.68364624 -8.26977539 44.38110352 C-9.03797607 44.79287842 -9.80617676 45.20465332 -10.59765625 45.62890625 C-11.47115723 46.10078369 -12.3446582 46.57266113 -13.24462891 47.05883789 C-14.17452637 47.55504639 -15.10442383 48.05125488 -16.0625 48.5625 C-18.05097714 49.63505357 -20.03925429 50.70797799 -22.02734375 51.78125 C-23.52950439 52.58949219 -23.52950439 52.58949219 -25.06201172 53.4140625 C-29.43010259 55.77197494 -33.77834658 58.16536245 -38.125 60.5625 C-39.76035066 61.46366146 -41.39576745 62.36470292 -43.03125 63.265625 C-44.24748047 63.93561523 -44.24748047 63.93561523 -45.48828125 64.61914062 C-48.1045488 66.05747745 -50.72381646 67.49022772 -53.34375 68.921875 C-55.10430236 69.8851687 -56.86472145 70.84870604 -58.625 71.8125 C-59.46361572 72.27124512 -60.30223145 72.72999023 -61.16625977 73.20263672 C-66.28072809 76.01382254 -71.30943849 78.92016395 -76.22265625 82.07421875 C-78 83 -78 83 -81 83 C-81 83.66 -81 84.32 -81 85 C-83.31 85.99 -85.62 86.98 -88 88 C-95.425 91.96 -95.425 91.96 -103 96 C-103 136.92 -103 177.84 -103 220 C-100.03 215.38 -97.06 210.76 -94 206 C-92.39678077 203.5710183 -90.78683125 201.14643348 -89.1640625 198.73046875 C-85.50796956 193.27073282 -81.87983184 187.79347564 -78.2734375 182.30078125 C-77.7898175 181.56423309 -77.30619751 180.82768494 -76.80792236 180.06881714 C-75.32989454 177.81696511 -73.85236979 175.5647838 -72.375 173.3125 C-65.95021273 163.51889862 -59.51287407 153.73534073 -53 144 C-52.12732164 142.69159465 -51.25488747 141.38302636 -50.3828125 140.07421875 C-48.34049479 137.01074219 -46.29817708 133.94726562 -44.25585938 130.88378906 C-43.84142578 130.26213867 -43.42699219 129.64048828 -43 129 C-41.85036058 127.27554086 -40.70072104 125.55108181 -39.55102539 123.82666016 C-38.75579104 122.63372609 -37.96071056 121.44068944 -37.16577148 120.24755859 C-34.53736807 116.30319753 -31.90471184 112.36171208 -29.26953125 108.421875 C-28.6041333 107.42599365 -27.93873535 106.4301123 -27.25317383 105.40405273 C-25.87776241 103.34556853 -24.50129982 101.2877863 -23.1237793 99.23071289 C-19.75747936 94.19063265 -16.43028051 89.13229935 -13.1875 84.01171875 C-12.59557861 83.08125732 -12.00365723 82.1507959 -11.39379883 81.19213867 C-10.27767872 79.43116336 -9.17035421 77.66457456 -8.07299805 75.8918457 C-7.57840088 75.11284912 -7.08380371 74.33385254 -6.57421875 73.53125 C-6.14713623 72.84611328 -5.72005371 72.16097656 -5.2800293 71.45507812 C-4.85761963 70.97490234 -4.43520996 70.49472656 -4 70 C-3.01 70 -2.02 70 -1 70 C3.473955 139.01151671 3.473955 139.01151671 -17.27734375 162.703125 C-18.27169556 163.78585629 -19.26884242 164.86602868 -20.26904297 165.94335938 C-24.22792865 170.25421039 -27.21005246 175.14418482 -30.25 180.125 C-31.24644279 181.6763091 -32.24749834 183.22466838 -33.25390625 184.76953125 C-33.7142627 185.48061035 -34.17461914 186.19168945 -34.64892578 186.92431641 C-36.80468683 190.23625722 -38.99262102 193.52639386 -41.1875 196.8125 C-41.58283936 197.40466309 -41.97817871 197.99682617 -42.38549805 198.60693359 C-44.51681174 201.79446188 -46.65805137 204.975116 -48.8046875 208.15234375 C-49.26593018 208.83772217 -49.72717285 209.52310059 -50.20239258 210.22924805 C-51.08726317 211.54392653 -51.9749748 212.85669875 -52.8659668 214.16723633 C-54.61363669 216.7672374 -56.00383398 219.01150195 -57 222 C-71.85 222 -86.7 222 -102 222 C-98.81065812 225.18934188 -96.77916582 226.90538939 -93 229.0234375 C-92.03602295 229.56661621 -91.0720459 230.10979492 -90.07885742 230.66943359 C-88.554823 231.51368896 -88.554823 231.51368896 -87 232.375 C-85.96141846 232.95717285 -84.92283691 233.5393457 -83.8527832 234.13916016 C-77.81212054 237.50586953 -71.7304027 240.67049303 -65.5 243.66796875 C-61.83988445 245.61812407 -58.57335413 248.04209199 -55.2265625 250.48046875 C-52.32641759 252.45969045 -49.2317484 253.63926383 -46 255 C-41.09377954 257.92790576 -36.33267004 261.07673713 -31.625 264.3125 C-29.1258084 266.0391581 -29.1258084 266.0391581 -26.625 266.9375 C-24.17097943 267.93079404 -22.21955191 269.07433276 -20 270.5 C-17.08468747 272.37176316 -14.29383949 273.86774268 -11 275 C-11 275.66 -11 276.32 -11 277 C-6.545 278.485 -6.545 278.485 -2 280 C-2 292.87 -2 305.74 -2 319 C-7.9317753 317.51705618 -11.00604075 316.74559971 -15.890625 313.8125 C-16.92960937 313.19632812 -17.96859375 312.58015625 -19.0390625 311.9453125 C-20.62847656 310.98238281 -20.62847656 310.98238281 -22.25 310 C-24.37969721 308.7283103 -26.50988526 307.45744214 -28.640625 306.1875 C-29.57422852 305.62417969 -30.50783203 305.06085938 -31.46972656 304.48046875 C-33.61398581 303.22585778 -35.76231704 302.0761877 -38 301 C-38 300.34 -38 299.68 -38 299 C-39.19625 298.690625 -40.3925 298.38125 -41.625 298.0625 C-46.93975682 296.32174895 -51.28075877 293.44427117 -55.86181641 290.31274414 C-59.76064369 287.67359798 -63.62997131 285.80812322 -68 284 C-70.7395174 282.66238553 -73.43329542 281.24352107 -76.125 279.8125 C-76.86709717 279.41957764 -77.60919434 279.02665527 -78.3737793 278.62182617 C-84.04992026 275.5832813 -89.49007834 272.27562565 -94.9375 268.84375 C-98.94342653 266.43201872 -103.0934698 264.40446362 -107.296875 262.36328125 C-110.31877511 260.83923047 -113.12158029 259.10791932 -115.9609375 257.2734375 C-120.74143488 254.28791615 -125.77720069 251.72273272 -130.74560547 249.06689453 C-131.94959162 248.42323374 -133.1532888 247.77903213 -134.35668945 247.13427734 C-136.05175983 246.22671378 -137.74849959 245.32227022 -139.4453125 244.41796875 C-142 243 -142 243 -143 242 C-143.1254357 239.89244047 -143.17977753 237.78064433 -143.20773315 235.66954041 C-143.22277332 234.66604635 -143.22277332 234.66604635 -143.23811734 233.64227968 C-143.27039371 231.38387194 -143.29520978 229.12544677 -143.31982422 226.86694336 C-143.34080918 225.25417757 -143.3620555 223.64141516 -143.38354492 222.02865601 C-143.57154977 207.2839185 -143.67415397 192.53804855 -143.75568962 177.79238033 C-143.81725533 166.89014854 -143.92073901 155.98998142 -144.07838428 145.08870786 C-144.18546303 137.42667867 -144.24273862 129.76521759 -144.26382077 122.10247523 C-144.27789237 117.52467601 -144.31431483 112.94957758 -144.405056 108.37260246 C-144.48963929 104.06157935 -144.51246543 99.75455118 -144.48869324 95.44280624 C-144.49066733 93.86405325 -144.51478772 92.28514246 -144.56312943 90.70712852 C-144.70262802 85.90712871 -144.61444697 81.58922914 -143 77 C-139.04198449 73.25315866 -134.98691564 71.22227995 -130 69 C-128.28307037 68.0571542 -126.57278305 67.10190238 -124.875 66.125 C-121.45648483 64.28848382 -118.02054666 62.48617501 -114.58203125 60.6875 C-106.24552572 56.32465842 -97.98402802 51.90105355 -89.83984375 47.1875 C-85.0208318 44.41965724 -80.13264714 41.77838548 -75.25 39.125 C-68.48256384 35.447258 -61.72660726 31.75193181 -55 28 C-47.47606021 23.80567801 -39.92304523 19.6664048 -32.35205078 15.55761719 C-27.64783755 13.00222165 -22.9597098 10.42322419 -18.296875 7.79296875 C-16.92958252 7.02617798 -16.92958252 7.02617798 -15.53466797 6.24389648 C-13.80059923 5.26989551 -12.07024537 4.28924187 -10.34423828 3.30102539 C-9.56806152 2.86653076 -8.79188477 2.43203613 -7.9921875 1.984375 C-7.31526855 1.59991211 -6.63834961 1.21544922 -5.94091797 0.81933594 C-4 0 -4 0 0 0 Z " fill="#A1B0BC" transform="translate(145,4)"/>
<path d="M0 0 C4.76255078 2.94416442 9.51550504 5.68429041 14.5625 8.125 C20.98225404 11.25126754 27.17309288 14.71276947 33.375 18.25 C42.26844096 23.32152018 51.23413398 28.20743964 60.30517578 32.95214844 C67.73077237 36.85166985 75.03073208 40.9679066 82.29370117 45.16040039 C85.18442977 46.82485978 88.07607012 48.38178506 91.0625 49.875 C91.0625 90.795 91.0625 131.715 91.0625 173.875 C87.30873848 172.62374616 86.82176711 171.3097596 85.0625 167.875 C85.0625 167.215 85.0625 166.555 85.0625 165.875 C84.4025 165.875 83.7425 165.875 83.0625 165.875 C81.66015625 163.86328125 81.66015625 163.86328125 80.125 161.1875 C79.36896484 159.88232422 79.36896484 159.88232422 78.59765625 158.55078125 C78.09105469 157.66777344 77.58445313 156.78476563 77.0625 155.875 C74.7974316 152.01324404 72.37004518 148.27810957 69.875 144.5625 C68.96080724 143.19670176 68.04675394 141.83081017 67.1328125 140.46484375 C66.63555664 139.72218262 66.13830078 138.97952148 65.62597656 138.21435547 C64.03544456 135.83451823 62.45059299 133.45099028 60.8671875 131.06640625 C54.45827757 121.42172164 48.01852119 111.79916233 41.53125 102.20703125 C28.90427728 83.53368393 16.33097294 64.82942769 3.9375 46 C3.0629567 44.6721196 3.0629567 44.6721196 2.17074585 43.31741333 C0.5263662 40.81937911 -1.1162115 38.32017341 -2.7578125 35.8203125 C-3.48234367 34.71859459 -3.48234367 34.71859459 -4.22151184 33.59461975 C-6.09329444 30.73861443 -7.92463698 27.89721727 -9.63623047 24.94091797 C-10.77215367 22.74164722 -10.77215367 22.74164722 -12.9375 21.875 C-13.16953125 22.5453125 -13.4015625 23.215625 -13.640625 23.90625 C-15.28703066 27.67513043 -17.42672466 30.94870685 -19.6875 34.375 C-20.16630615 35.1076709 -20.6451123 35.8403418 -21.13842773 36.59521484 C-26.81037332 45.2520614 -32.56439701 53.85507893 -38.31982422 62.45654297 C-40.57132059 65.82257422 -42.8171279 69.19238187 -45.0625 72.5625 C-45.85673316 73.75393137 -46.65100422 74.94533747 -47.4453125 76.13671875 C-48.04520996 77.03656494 -48.04520996 77.03656494 -48.65722656 77.95458984 C-52.8671875 84.26953125 -52.8671875 84.26953125 -54.39233398 86.55712891 C-55.42584999 88.10748457 -56.4592149 89.65794097 -57.49243164 91.20849609 C-59.74281613 94.58532562 -61.99405739 97.96152646 -64.25390625 101.33203125 C-70.47220057 110.61598816 -76.5899535 119.9653337 -82.70730591 129.31594849 C-87.98443105 137.38180763 -93.28778951 145.42816059 -98.65625 153.43359375 C-101.95835001 158.38526961 -105.16196299 163.40241554 -108.36132812 168.42089844 C-108.79896484 169.10313477 -109.23660156 169.78537109 -109.6875 170.48828125 C-110.07421875 171.09454346 -110.4609375 171.70080566 -110.859375 172.32543945 C-111.9375 173.875 -111.9375 173.875 -113.9375 175.875 C-113.9375 134.295 -113.9375 92.715 -113.9375 49.875 C-95.9375 39.875 -95.9375 39.875 -90.9375 38.875 C-90.9375 38.215 -90.9375 37.555 -90.9375 36.875 C-90.23367187 36.5346875 -89.52984375 36.194375 -88.8046875 35.84375 C-82.69346581 32.84398583 -76.73603503 29.66863182 -70.84619141 26.25537109 C-65.34280134 23.07835379 -59.77107132 20.03347268 -54.1875 17 C-45.76037927 12.42002735 -37.35873457 7.7976032 -28.98046875 3.12890625 C-27.99892822 2.58387451 -27.99892822 2.58387451 -26.99755859 2.02783203 C-25.5164181 1.1989691 -24.04080521 0.36019996 -22.56884766 -0.48486328 C-21.77913574 -0.93458496 -20.98942383 -1.38430664 -20.17578125 -1.84765625 C-19.46075439 -2.25894775 -18.74572754 -2.67023926 -18.0090332 -3.09399414 C-10.94131124 -6.61161227 -6.27518236 -3.98885033 0 0 Z " fill="#151F28" transform="translate(154.9375,50.125)"/>
<path d="M0 0 C3.19602675 3.86308738 5.99976579 7.88057742 8.75 12.0625 C9.55720889 13.28260685 10.36450368 14.50265687 11.171875 15.72265625 C11.60910889 16.38483154 12.04634277 17.04700684 12.49682617 17.72924805 C14.96332944 21.45524234 17.44559276 25.17072024 19.92529297 28.88793945 C21.89431293 31.84146939 23.85987606 34.79726413 25.82421875 37.75390625 C32.23041344 47.38982591 38.6535493 57.01258663 45.1875 66.5625 C45.96130005 67.69377319 45.96130005 67.69377319 46.75073242 68.84790039 C47.23904541 69.55938232 47.7273584 70.27086426 48.23046875 71.00390625 C48.69114746 71.67566895 49.15182617 72.34743164 49.62646484 73.03955078 C50.55481423 74.36458554 51.50380319 75.67536046 52.47119141 76.97216797 C56 81.70653937 56 81.70653937 56 85 C71.51 85 87.02 85 103 85 C103 85.66 103 86.32 103 87 C102.34 87 101.68 87 101 87 C101 87.66 101 88.32 101 89 C98 91 98 91 94 91 C94 91.66 94 92.32 94 93 C93.01 93.391875 92.02 93.78375 91 94.1875 C87.31737497 95.74438213 84.10005452 97.77216304 80.796875 100.01171875 C79 101 79 101 76 101 C76 101.66 76 102.32 76 103 C75.48953125 103.20753906 74.9790625 103.41507812 74.453125 103.62890625 C66.8934302 106.83239394 59.40549949 110.67599497 52.8359375 115.6328125 C50.73938128 117.19407777 48.54088621 118.06566019 46.1328125 119.05078125 C40.96053107 121.35273068 35.55378695 123.9780326 31.10546875 127.5 C28.85590946 129.10265448 26.55365484 130.07327976 24.00683594 131.11621094 C20.07402252 132.84817986 16.36739126 135.02028401 12.625 137.125 C11.80644531 137.58003906 10.98789063 138.03507813 10.14453125 138.50390625 C6.34757162 140.43986079 6.34757162 140.43986079 3 143 C-1.20500429 143.0426471 -4.90848442 142.96310198 -8.125 140.125 C-8.74375 139.42375 -9.3625 138.7225 -10 138 C-12.31979381 136.96898053 -14.65429915 135.97063483 -17 135 C-19 133.66666667 -21 132.33333333 -23 131 C-24.0415625 130.5771875 -25.083125 130.154375 -26.15625 129.71875 C-31.42043284 127.51796768 -35.9721552 124.20482556 -40.68359375 121.02734375 C-45.00338009 118.16050544 -49.20791866 116.02234625 -54 114 C-57.0050971 112.24001592 -59.8664005 110.26669788 -62.75 108.31640625 C-66.05014411 106.1285875 -69.22719168 104.44225795 -72.91113281 102.94726562 C-77.92118909 100.6752906 -82.62479234 97.76293366 -87.375 95 C-89.03208984 94.05640625 -89.03208984 94.05640625 -90.72265625 93.09375 C-91.77066406 92.4853125 -92.81867188 91.876875 -93.8984375 91.25 C-94.85411621 90.69828125 -95.80979492 90.1465625 -96.79443359 89.578125 C-99 88 -99 88 -100 85 C-85.15 85 -70.3 85 -55 85 C-54.505 83.02 -54.505 83.02 -54 81 C-53.03540039 79.22338867 -53.03540039 79.22338867 -51.84765625 77.41796875 C-51.39970703 76.73154297 -50.95175781 76.04511719 -50.49023438 75.33789062 C-50.01908203 74.62826172 -49.54792969 73.91863281 -49.0625 73.1875 C-48.62615234 72.52041016 -48.18980469 71.85332031 -47.74023438 71.16601562 C-45.10445222 67.14764928 -42.43414477 63.15244323 -39.76429749 59.15666199 C-35.08614438 52.15275579 -30.44444992 45.12562829 -25.8203125 38.0859375 C-24.88163582 36.65774437 -24.88163582 36.65774437 -23.92399597 35.20069885 C-21.32882084 31.25204583 -18.73377917 27.30331326 -16.14257812 23.35205078 C-14.22491719 20.42852062 -12.30413736 17.50706062 -10.3828125 14.5859375 C-9.80048859 13.69635345 -9.21816467 12.80676941 -8.61819458 11.89022827 C-5.9065721 7.77288938 -3.18151042 3.77725528 0 0 Z " fill="#101A23" transform="translate(143,141)"/>
<path d="M0 0 C1.32712824 2.65425649 1.10605419 4.62033136 1.08229065 7.59341431 C1.07525116 8.78255936 1.06821167 9.97170441 1.06095886 11.19688416 C1.04801285 12.50814774 1.03506683 13.81941132 1.02172852 15.17041016 C1.0115884 16.55984695 1.00189444 17.94928705 0.99261475 19.33872986 C0.96610695 23.11746209 0.93333296 26.89611743 0.89946485 30.67478991 C0.8651483 34.62124988 0.83655164 38.56775111 0.80735779 42.51425171 C0.75117868 49.9905318 0.68982808 57.46676023 0.62663645 64.94298398 C0.5549564 73.4531162 0.48901572 81.96328982 0.42356598 90.47347188 C0.28878028 107.98236868 0.14675823 125.49119955 0 143 C-6.994077 141.13116979 -6.994077 141.13116979 -10 138 C-11.71774179 137.25456488 -13.43744668 136.51246894 -15.17578125 135.81640625 C-17.99561447 134.55442522 -20.43366795 132.71088803 -23 131 C-24.0415625 130.5771875 -25.083125 130.154375 -26.15625 129.71875 C-31.42043284 127.51796768 -35.9721552 124.20482556 -40.68359375 121.02734375 C-45.00338009 118.16050544 -49.20791866 116.02234625 -54 114 C-57.0050971 112.24001592 -59.8664005 110.26669788 -62.75 108.31640625 C-66.05014411 106.1285875 -69.22719168 104.44225795 -72.91113281 102.94726562 C-77.92118909 100.6752906 -82.62479234 97.76293366 -87.375 95 C-89.03208984 94.05640625 -89.03208984 94.05640625 -90.72265625 93.09375 C-91.77066406 92.4853125 -92.81867188 91.876875 -93.8984375 91.25 C-94.85411621 90.69828125 -95.80979492 90.1465625 -96.79443359 89.578125 C-99 88 -99 88 -100 85 C-85.15 85 -70.3 85 -55 85 C-54.505 83.02 -54.505 83.02 -54 81 C-53.03540039 79.22338867 -53.03540039 79.22338867 -51.84765625 77.41796875 C-51.39970703 76.73154297 -50.95175781 76.04511719 -50.49023438 75.33789062 C-50.01908203 74.62826172 -49.54792969 73.91863281 -49.0625 73.1875 C-48.62615234 72.52041016 -48.18980469 71.85332031 -47.74023438 71.16601562 C-45.10445222 67.14764928 -42.43414477 63.15244323 -39.76429749 59.15666199 C-35.08614438 52.15275579 -30.44444992 45.12562829 -25.8203125 38.0859375 C-24.88163582 36.65774437 -24.88163582 36.65774437 -23.92399597 35.20069885 C-21.32882084 31.25204583 -18.73377917 27.30331326 -16.14257812 23.35205078 C-14.22491719 20.42852062 -12.30413736 17.50706062 -10.3828125 14.5859375 C-9.80048859 13.69635345 -9.21816467 12.80676941 -8.61819458 11.89022827 C-5.9065721 7.77288938 -3.18151042 3.77725528 0 0 Z " fill="#2F3C48" transform="translate(143,141)"/>
<path d="M0 0 C4.14969462 1.38323154 5.23510114 4.23616713 7.35546875 7.828125 C11.18731608 14.13420508 15.1573388 20.31590348 19.30078125 26.421875 C19.85759079 27.24361206 20.41440033 28.06534912 20.98808289 28.9119873 C22.15573318 30.63314011 23.32424472 32.35370892 24.49356079 34.07373047 C36.9889232 52.45859871 49.28713464 70.96712341 61.45629883 89.56933594 C66.59799902 97.4167094 71.72327115 105.23263985 77.35351562 112.74145508 C80.4650856 117.00971336 83.21661901 121.51376431 86 126 C86.87491987 127.39588356 87.74991237 128.7917216 88.625 130.1875 C89.01300781 130.81269531 89.40101563 131.43789062 89.80078125 132.08203125 C90.66292093 133.46089309 91.53674607 134.83247393 92.41796875 136.19921875 C92.87816406 136.91722656 93.33835937 137.63523438 93.8125 138.375 C94.23144531 139.02210938 94.65039062 139.66921875 95.08203125 140.3359375 C96 142 96 142 96 144 C96.66 144 97.32 144 98 144 C102 150.75 102 150.75 102 153 C95.77507694 153.37303626 89.55673758 153.64388518 83.32324219 153.82397461 C81.20783159 153.89906361 79.09319091 154.00118697 76.98046875 154.1315918 C59.8998231 155.15884761 59.8998231 155.15884761 55.08587646 151.57498169 C51.89758525 148.0823935 49.82421268 144.15728367 47.89668274 139.86875916 C46.53932237 137.03991067 44.72444609 134.58727588 42.875 132.0625 C36.38472629 122.73633404 30.13888094 113.24463258 23.85058594 103.78173828 C21.91432798 100.87122072 19.97171255 97.96506709 18.02392578 95.06225586 C16.84495725 93.29811058 15.69618391 91.51386614 14.55224609 89.72680664 C12.90725368 87.2248171 11.16156767 85.0148322 9.14257812 82.80664062 C-2.28705526 69.39183458 -0.08108907 53.28153323 0.70825195 36.77404785 C0.88350081 32.84613399 0.99236381 28.91638389 1.10742188 24.98632812 C1.34132959 17.32099953 1.64683783 9.66086168 2 2 C1.34 2 0.68 2 0 2 C0 1.34 0 0.68 0 0 Z " fill="#61707D" transform="translate(142,72)"/>
</svg>
