<?xml version="1.0" encoding="UTF-8"?>
<svg version="1.1" xmlns="http://www.w3.org/2000/svg" width="287" height="330">
<path d="M0 0 C1.19730054 0.65205577 2.37247991 1.34574724 3.52734375 2.0703125 C4.18943848 2.44236816 4.8515332 2.81442383 5.53369141 3.19775391 C7.02464407 4.03668842 8.50698582 4.8910484 9.98193359 5.7578125 C13.68465282 7.90153038 17.46491507 9.89490328 21.23876953 11.90991211 C30.7024997 16.97705341 40.09074915 22.18343172 49.46484375 27.4140625 C53.37457673 29.59336458 57.293265 31.75617211 61.21484375 33.9140625 C73.48297414 40.66616564 85.72533985 47.4531132 97.89501953 54.38183594 C106.4728215 59.2440546 115.15413215 63.9074588 123.86401367 68.52783203 C124.89888916 69.07938965 125.93376465 69.63094727 127 70.19921875 C127.91144775 70.68205322 128.82289551 71.1648877 129.76196289 71.66235352 C130.65391357 72.16822998 131.54586426 72.67410645 132.46484375 73.1953125 C133.49501523 73.74680214 134.52518671 74.29829178 135.58657551 74.86649323 C138.46484375 77.1953125 138.46484375 77.1953125 139.21709728 80.28443146 C139.21854228 82.11838093 139.21854228 82.11838093 139.22001648 83.98937988 C139.22867086 84.67192856 139.23732524 85.35447724 139.24624187 86.05770922 C139.26783225 88.34463086 139.24654166 90.62911997 139.2253418 92.91601562 C139.23183499 94.55542667 139.24089601 96.19482926 139.25233459 97.83421326 C139.27543333 102.28687681 139.26068672 106.73868422 139.23786521 111.19132042 C139.21896552 115.84862888 139.23010495 120.50587925 139.23677063 125.16320801 C139.24311336 132.98475766 139.22483036 140.80596381 139.19213867 148.62744141 C139.15464323 157.67307561 139.15642209 166.71805905 139.17917985 175.76372766 C139.20012063 184.46162123 139.19285966 193.15927403 139.1728611 201.85716248 C139.16486967 205.56048956 139.16687303 209.26361329 139.1768856 212.9669342 C139.1874277 217.32725412 139.17333663 221.68681471 139.14014244 226.04701424 C139.13192617 227.64819842 139.13222991 229.24945208 139.14162064 230.85062981 C139.15302582 233.03502141 139.13370933 235.21704275 139.10649109 237.40124512 C139.10171517 239.23519459 139.10171517 239.23519459 139.09684277 241.10619354 C138.46484375 244.1953125 138.46484375 244.1953125 136.09982014 246.51464081 C133.30322565 248.29839766 130.49552585 249.97166019 127.58203125 251.55859375 C126.42880371 252.19031494 125.27557617 252.82203613 124.08740234 253.47290039 C122.83821939 254.15121041 121.58903311 254.82951428 120.33984375 255.5078125 C119.03696365 256.22005773 117.73439685 256.93287635 116.43212891 257.64624023 C114.42438963 258.74594953 112.4164618 259.84529776 110.40756226 260.94288635 C103.8673925 264.51637352 97.35176441 268.13308518 90.83984375 271.7578125 C88.61981521 272.99222984 86.39976307 274.22660475 84.1796875 275.4609375 C83.07995605 276.07259766 81.98022461 276.68425781 80.84716797 277.31445312 C73.88351169 281.18683713 66.91760247 285.05516737 59.95214844 288.92431641 C55.23042945 291.54726372 50.50876993 294.17030947 45.7890625 296.796875 C42.2408307 298.77136642 38.69045573 300.7419625 35.13916016 302.7109375 C32.46166347 304.19707771 29.7858604 305.68624519 27.11010742 307.17552185 C24.48941868 308.63301489 21.86702842 310.08742859 19.24432373 311.54129028 C17.94731748 312.26102874 16.65095559 312.98192976 15.35528564 313.70407104 C13.52506331 314.7238682 11.69248736 315.73931537 9.859375 316.75390625 C8.79565674 317.34486084 7.73193848 317.93581543 6.63598633 318.54467773 C5.58950928 319.08938721 4.54303223 319.63409668 3.46484375 320.1953125 C2.88701141 320.51521149 2.30917908 320.83511047 1.71383667 321.16470337 C-1.41149753 322.74527389 -3.02948296 323.33964504 -6.44335938 322.36523438 C-7.86551758 321.5231543 -7.86551758 321.5231543 -9.31640625 320.6640625 C-10.39341797 320.04466797 -11.47042969 319.42527344 -12.58007812 318.78710938 C-13.73196776 318.09016913 -14.88365539 317.3928949 -16.03515625 316.6953125 C-17.24262303 315.99023317 -18.45163311 315.28779069 -19.66210938 314.58789062 C-22.12481546 313.1596878 -24.57916405 311.71858313 -27.02734375 310.265625 C-31.98480907 307.32896843 -37.01130747 304.51634215 -42.03515625 301.6953125 C-43.91034371 300.63314338 -45.78534114 299.57063872 -47.66015625 298.5078125 C-55.24609151 294.22010996 -62.87118631 290.00310801 -70.49267578 285.77905273 C-77.65225482 281.80734898 -84.78987048 277.79947969 -91.91015625 273.7578125 C-102.00426191 268.02831482 -112.16076517 262.41575183 -122.33935547 256.83813477 C-128.0278773 253.71362757 -133.7012396 250.56429067 -139.3359375 247.34375 C-140.80220581 246.507229 -140.80220581 246.507229 -142.2980957 245.65380859 C-144.53515625 244.1953125 -144.53515625 244.1953125 -145.53515625 242.1953125 C-145.64879089 240.05541025 -145.69674141 237.91193499 -145.7159729 235.769104 C-145.72317742 235.10192596 -145.73038193 234.43474792 -145.73780477 233.74735236 C-145.76061086 231.50118167 -145.77612321 229.25502204 -145.79150391 227.00878906 C-145.80594887 225.40248339 -145.82070646 223.79618051 -145.83575439 222.18988037 C-145.96603814 207.52469277 -146.03188879 192.85874083 -146.08359718 178.19308853 C-146.12252489 167.3494997 -146.19090874 156.50694806 -146.29814494 145.66381478 C-146.3709793 138.04252902 -146.40942885 130.42152711 -146.42262304 122.79990745 C-146.43149264 118.24628171 -146.45577852 113.69393807 -146.51729202 109.14069366 C-146.57452424 104.85565917 -146.58921693 100.57256802 -146.57141876 96.28720856 C-146.57229743 94.71578288 -146.58856609 93.14427795 -146.62146378 91.57319641 C-146.85712185 79.70144955 -146.85712185 79.70144955 -143.57531548 75.96243382 C-141.27760714 74.40129885 -139.09204472 73.26616736 -136.53515625 72.1953125 C-134.93776611 71.27866821 -134.93776611 71.27866821 -133.30810547 70.34350586 C-132.3285791 69.82925049 -131.34905273 69.31499512 -130.33984375 68.78515625 C-129.22399902 68.19468506 -128.1081543 67.60421387 -126.95849609 66.99584961 C-126.38041199 66.69242645 -125.80232788 66.3890033 -125.20672607 66.0763855 C-122.09128819 64.44013233 -118.98485154 62.78699701 -115.87890625 61.1328125 C-115.25317719 60.79970566 -114.62744812 60.46659882 -113.98275757 60.12339783 C-108.2373722 57.05506248 -102.56583402 53.86334601 -96.91015625 50.6328125 C-87.64023021 45.34339156 -78.27508338 40.25095499 -68.86791992 35.21020508 C-61.38060927 31.19629109 -53.93616712 27.11526653 -46.51953125 22.97265625 C-39.85171046 19.24993103 -33.16049129 15.56941291 -26.47265625 11.8828125 C-23.68801136 10.34779661 -23.68801136 10.34779661 -20.90414429 8.81137085 C-19.16562529 7.85439366 -17.42233936 6.90609267 -15.67895508 5.95800781 C-13.72452735 4.86218051 -11.79548816 3.71794734 -9.9128418 2.50292969 C-4.40274352 -1.00217145 -4.40274352 -1.00217145 0 0 Z M-11.55859375 46.23828125 C-12.13218124 46.55782776 -12.70576874 46.87737427 -13.29673767 47.206604 C-15.17362218 48.25544984 -17.0416975 49.3190412 -18.91015625 50.3828125 C-20.22626808 51.12148448 -21.54292536 51.8591854 -22.86010742 52.59594727 C-28.73468607 55.88830539 -34.58554204 59.22233668 -40.4375 62.5546875 C-42.24079925 63.5808806 -44.04418313 64.606925 -45.84765625 65.6328125 C-46.74274902 66.14320068 -47.6378418 66.65358887 -48.56005859 67.17944336 C-58.81809785 72.99007214 -69.2578554 78.46451821 -79.71382141 83.90892029 C-80.9999624 84.58954866 -82.28048462 85.28127196 -83.54780293 85.99633694 C-86.81832019 87.82197559 -89.96392027 89.39634208 -93.5125885 90.60697937 C-97.96178517 92.32737589 -101.68942979 94.26138176 -104.53515625 98.1953125 C-107.34986691 106.84870712 -106.27215761 116.58234194 -106 125.54296875 C-105.96363391 128.24289393 -105.94992358 130.94280848 -105.9356842 133.64292908 C-105.88920814 140.00875003 -105.76634687 146.37066931 -105.61544186 152.73477787 C-105.44729783 159.98459709 -105.36519164 167.23461106 -105.29001033 174.48589718 C-105.13355946 189.39120337 -104.87003797 204.29286637 -104.53515625 219.1953125 C-101.98608134 216.68754473 -99.8079976 214.33664366 -97.8828125 211.3203125 C-97.36936279 210.52367187 -96.85591309 209.72703125 -96.3269043 208.90625 C-95.75625244 208.01164063 -95.18560059 207.11703125 -94.59765625 206.1953125 C-93.25260184 204.11113978 -91.90611666 202.02789007 -90.55859375 199.9453125 C-90.1808934 199.36080322 -89.80319305 198.77629395 -89.41404724 198.17407227 C-83.57264324 189.14472956 -77.64208475 180.173596 -71.72265625 171.1953125 C-71.10213379 170.25380341 -70.48161133 169.31229431 -69.84228516 168.34225464 C-60.7982469 154.62238212 -51.71702308 140.9277251 -42.59765625 127.2578125 C-42.05303741 126.44139282 -41.50841858 125.62497314 -40.94729614 124.78381348 C-36.04786717 117.44069756 -31.14427214 110.10041855 -26.2265625 102.76953125 C-18.80435532 91.69525079 -11.58707822 80.50932057 -4.53515625 69.1953125 C-0.38546163 70.57854404 0.69994489 73.43147963 2.8203125 77.0234375 C6.65215976 83.32951747 10.6221797 89.51121788 14.765625 95.6171875 C15.32216263 96.43851669 15.87870026 97.25984589 16.45210266 98.10606384 C17.6194802 99.82680338 18.78771726 101.54696007 19.95675659 103.26657104 C32.27439724 121.39027058 44.40437201 139.63129352 56.39379883 157.97363281 C62.68968548 167.58686733 69.11000162 177.09130682 75.74888611 186.4717865 C79.80780156 192.21104331 83.66147189 198.04889096 87.42578125 203.984375 C89.57433965 207.36773707 91.75526249 210.72661868 93.96484375 214.0703125 C94.61453125 215.05773437 95.26421875 216.04515625 95.93359375 217.0625 C96.43890625 217.76632813 96.94421875 218.47015625 97.46484375 219.1953125 C97.79484375 219.1953125 98.12484375 219.1953125 98.46484375 219.1953125 C98.46484375 179.2653125 98.46484375 139.3353125 98.46484375 98.1953125 C81.46173841 88.45400679 81.46173841 88.45400679 64.27734375 79.0703125 C62.05552211 77.88108129 59.83416896 76.6909744 57.61328125 75.5 C56.55979492 74.93506836 55.50630859 74.37013672 54.42089844 73.78808594 C47.39262451 70.00113028 40.4287828 66.09888413 33.46484375 62.1953125 C31.35030239 61.01164376 29.23571588 59.82805569 27.12109375 58.64453125 C22.8064955 56.22928229 18.4928185 53.81239919 14.1796875 51.39453125 C13.21015137 50.85489746 12.24061523 50.31526367 11.24169922 49.75927734 C9.44774589 48.74889709 7.66448854 47.7191749 5.89501953 46.66650391 C4.72495361 45.97886963 4.72495361 45.97886963 3.53125 45.27734375 C2.8616626 44.87362549 2.1920752 44.46990723 1.50219727 44.05395508 C-3.59750038 41.90468766 -6.96355704 43.64811254 -11.55859375 46.23828125 Z M-4.53515625 140.1953125 C-6.00049419 142.25043376 -7.3426293 144.2975631 -8.66015625 146.4453125 C-12.06044925 151.90563703 -15.57514256 157.27556114 -19.15283203 162.62158203 C-21.93389858 166.78480648 -24.68374271 170.96846096 -27.43359375 175.15234375 C-27.95801056 175.95008209 -28.48242737 176.74782043 -29.0227356 177.56973267 C-31.19534879 180.87534021 -33.36728961 184.18138916 -35.5390625 187.48754883 C-38.70188246 192.30179903 -41.86856765 197.1134665 -45.03942871 201.92242432 C-46.50121729 204.1437393 -47.95654744 206.3691786 -49.41113281 208.59521484 C-50.29861967 209.94512405 -51.18630386 211.29490355 -52.07421875 212.64453125 C-52.66642715 213.55656059 -52.66642715 213.55656059 -53.27059937 214.48701477 C-57.70117152 221.19388204 -57.70117152 221.19388204 -60.53515625 223.1953125 C-63.65311415 223.79378683 -66.72670386 223.80024536 -69.89453125 223.8046875 C-70.7989093 223.82122375 -71.70328735 223.83776001 -72.6350708 223.85479736 C-75.51850146 223.90331229 -78.40140459 223.92465594 -81.28515625 223.9453125 C-83.24221409 223.97346928 -85.19924732 224.00339629 -87.15625 224.03515625 C-91.94917533 224.10907219 -96.74180721 224.15862548 -101.53515625 224.1953125 C-99.20875439 226.60052412 -97.0216661 228.20503086 -94.08984375 229.83984375 C-92.74092041 230.59696655 -92.74092041 230.59696655 -91.36474609 231.36938477 C-89.90222412 232.18040649 -89.90222412 232.18040649 -88.41015625 233.0078125 C-87.39260254 233.57749756 -86.37504883 234.14718262 -85.32666016 234.73413086 C-82.06531483 236.55902015 -78.80031492 238.3772567 -75.53515625 240.1953125 C-71.32564838 242.54738147 -67.1178775 244.9025492 -62.91015625 247.2578125 C-61.86553223 247.84199951 -60.8209082 248.42618652 -59.74462891 249.02807617 C-49.63735131 254.6854161 -39.58216282 260.4318268 -29.53515625 266.1953125 C-25.68180119 268.40506568 -21.82746282 270.61309263 -17.97265625 272.8203125 C-17.08545898 273.32965332 -16.19826172 273.83899414 -15.28417969 274.36376953 C-14.04522949 275.07315674 -14.04522949 275.07315674 -12.78125 275.796875 C-12.05607178 276.21275879 -11.33089355 276.62864258 -10.58374023 277.05712891 C-9.90770752 277.43272949 -9.2316748 277.80833008 -8.53515625 278.1953125 C-7.89070557 278.59540527 -7.24625488 278.99549805 -6.58227539 279.40771484 C-3.79386986 280.48051106 -2.37497877 280.08153206 0.46484375 279.1953125 C2.45906612 278.23834994 4.41783054 277.20595926 6.34765625 276.125 C7.50072266 275.48369141 8.65378906 274.84238281 9.84179688 274.18164062 C11.09119703 273.47795548 12.34054458 272.77417693 13.58984375 272.0703125 C14.89351382 271.34244235 16.1975563 270.61523883 17.50195312 269.88867188 C20.18586992 268.39245546 22.86771995 266.89263438 25.54785156 265.38964844 C30.25158193 262.7526169 34.96592171 260.13492034 39.6809082 257.51806641 C41.87534029 256.30004322 44.06918571 255.0809625 46.26245117 253.86083984 C52.22777702 250.542641 58.19925012 247.23617653 64.1796875 243.9453125 C64.82616241 243.5894104 65.47263733 243.2335083 66.13870239 242.86682129 C69.24895727 241.15471145 72.36003268 239.44412783 75.47265625 237.73632812 C86.6027883 231.69549241 86.6027883 231.69549241 97.46484375 225.1953125 C97.46484375 224.8653125 97.46484375 224.5353125 97.46484375 224.1953125 C95.55022339 224.18914917 95.55022339 224.18914917 93.59692383 224.18286133 C88.85351381 224.16106171 84.1109323 224.10676304 79.36791992 224.04272461 C77.31656851 224.01955191 75.26509825 224.00515061 73.21362305 223.99975586 C70.26145425 223.99046107 67.31115289 223.94945886 64.359375 223.90234375 C62.98722588 223.90824272 62.98722588 223.90824272 61.58735657 223.91426086 C57.2903261 223.81617191 55.13048424 223.69728967 51.625 221.05371094 C49.32350756 218.00829124 47.09180029 214.95079305 45.0078125 211.75390625 C44.59147049 211.12585587 44.17512848 210.49780548 43.74617004 209.85072327 C42.37617793 207.78158863 41.01433901 205.70721781 39.65234375 203.6328125 C38.69007497 202.17667221 37.72717226 200.72095066 36.76367188 199.265625 C34.72472545 196.18495981 32.68848385 193.10253055 30.65380859 190.01904297 C25.80731037 182.68064703 20.92137987 175.36851347 16.03897095 168.0539856 C14.00671578 165.00885329 11.97584048 161.96280332 9.94572449 158.91624451 C9.01683464 157.52316455 8.08702888 156.13069477 7.15620422 154.73890686 C5.25587691 151.89591686 3.36993474 149.04780332 1.51953125 146.171875 C0.98585938 145.34429687 0.4521875 144.51671875 -0.09765625 143.6640625 C-0.74927734 142.63442383 -0.74927734 142.63442383 -1.4140625 141.58398438 C-1.96900391 140.8965918 -1.96900391 140.8965918 -2.53515625 140.1953125 C-3.19515625 140.1953125 -3.85515625 140.1953125 -4.53515625 140.1953125 Z " fill="#50606D" transform="translate(146.53515625,2.8046875)"/>
<path d="M0 0 C0.82371094 0.52207031 1.64742187 1.04414062 2.49609375 1.58203125 C3.34300781 2.09121094 4.18992188 2.60039063 5.0625 3.125 C5.98869141 3.75341797 5.98869141 3.75341797 6.93359375 4.39453125 C6.93359375 4.72453125 6.93359375 5.05453125 6.93359375 5.39453125 C3.96359375 5.39453125 0.99359375 5.39453125 -2.06640625 5.39453125 C-2.06640625 16.28453125 -2.06640625 27.17453125 -2.06640625 38.39453125 C-1.07640625 38.72453125 -0.08640625 39.05453125 0.93359375 39.39453125 C0.60359375 40.38453125 0.27359375 41.37453125 -0.06640625 42.39453125 C0.55234375 42.49765625 1.17109375 42.60078125 1.80859375 42.70703125 C3.93359375 43.39453125 3.93359375 43.39453125 5.93359375 46.39453125 C5.08796875 46.04390625 4.24234375 45.69328125 3.37109375 45.33203125 C-3.15843759 43.55124998 -7.9292175 45.54350348 -13.57373047 48.73339844 C-14.33443848 49.17844727 -15.09514648 49.62349609 -15.87890625 50.08203125 C-16.67570801 50.53610352 -17.47250977 50.99017578 -18.29345703 51.45800781 C-23.15975598 54.2430037 -27.96003195 57.13047235 -32.74609375 60.05078125 C-35.30427389 61.53228625 -37.91229336 62.84278651 -40.56640625 64.14453125 C-46.34954747 66.98472878 -51.96081722 70.07648211 -57.57910156 73.22509766 C-65.08135648 77.42282483 -72.64195432 81.50951273 -80.21582031 85.57641602 C-87.91402714 89.72518557 -95.46576217 94.05130606 -103.06640625 98.39453125 C-103.06640625 137.99453125 -103.06640625 177.59453125 -103.06640625 218.39453125 C-97.45640625 209.81453125 -91.84640625 201.23453125 -86.06640625 192.39453125 C-81.42510097 185.32900701 -76.78143869 178.26515153 -72.12890625 171.20703125 C-71.52198944 170.28606659 -70.91507263 169.36510193 -70.2897644 168.41622925 C-58.18505683 150.0519875 -45.99779236 131.74342185 -33.77880859 113.45507812 C-30.74895425 108.92004637 -27.72299833 104.38242807 -24.69897461 99.84350586 C-23.56702438 98.14550189 -22.43382113 96.44833222 -21.29907227 94.75219727 C-19.06027464 91.40423758 -16.83601165 88.05054089 -14.66796875 84.65625 C-13.62769531 83.04169922 -13.62769531 83.04169922 -12.56640625 81.39453125 C-11.7465625 80.09515625 -11.7465625 80.09515625 -10.91015625 78.76953125 C-8.60146929 75.79562941 -5.98464854 73.77338278 -3.06640625 71.39453125 C-2.95015311 80.10508094 -2.86151041 88.81536038 -2.80734539 97.52651882 C-2.78133835 101.57224013 -2.74610579 105.61742763 -2.68920898 109.6628418 C-2.63456776 113.57270049 -2.60491895 117.48204832 -2.59202003 121.3922596 C-2.58283724 122.87813412 -2.56490585 124.36398315 -2.53775597 125.84963799 C-2.38455467 134.5866069 -2.78851103 141.17017583 -8.06640625 148.39453125 C-8.95854815 149.77364155 -9.8483412 151.15427401 -10.73583984 152.53637695 C-11.68386284 153.94575538 -12.63532854 155.35282287 -13.58984375 156.7578125 C-14.65387039 158.33898544 -15.71732821 159.92054128 -16.78027344 161.50244141 C-17.32325073 162.30909241 -17.86622803 163.11574341 -18.42565918 163.94683838 C-21.09387745 167.92732932 -23.72517927 171.93188405 -26.35546875 175.9375 C-26.87679382 176.73068634 -27.3981189 177.52387268 -27.9352417 178.34109497 C-29.52114209 180.75440438 -31.10636491 183.16815756 -32.69140625 185.58203125 C-36.32426985 191.11399261 -39.96089299 196.6434245 -43.6036377 202.16888428 C-45.03889247 204.35266819 -46.46499592 206.54219921 -47.88964844 208.73291016 C-48.76871514 210.07465243 -49.64793844 211.41629213 -50.52734375 212.7578125 C-50.91475739 213.35893356 -51.30217102 213.96005463 -51.70132446 214.57939148 C-57.82363357 223.874191 -57.82363357 223.874191 -62.04833984 224.85435486 C-64.48020296 225.06936514 -66.86340934 225.1128688 -69.3046875 225.1015625 C-70.18545456 225.11668381 -71.06622162 225.13180511 -71.97367859 225.14738464 C-74.77568213 225.19023415 -77.57660783 225.19909681 -80.37890625 225.20703125 C-82.28323172 225.23017775 -84.18753161 225.25554341 -86.09179688 225.28320312 C-90.75009516 225.34602822 -95.40772175 225.37838494 -100.06640625 225.39453125 C-99.44000244 225.74531738 -98.81359863 226.09610352 -98.16821289 226.45751953 C-97.27996826 226.95493652 -96.39172363 227.45235352 -95.4765625 227.96484375 C-94.4772168 228.52445801 -93.47787109 229.08407227 -92.44824219 229.66064453 C-90.20533726 230.91671089 -87.96250046 232.17289892 -85.71972656 233.42919922 C-80.00744948 236.6288307 -74.29421465 239.82671314 -68.578125 243.01953125 C-57.05799506 249.45675137 -45.55230217 255.91656267 -34.1171875 262.50390625 C-30.63356406 264.50853672 -27.12948952 266.47036047 -23.609375 268.41015625 C-22.29138916 269.14649292 -22.29138916 269.14649292 -20.94677734 269.89770508 C-19.28039472 270.8284902 -17.60781739 271.74830247 -15.92822266 272.6550293 C-10.40507227 275.7668238 -10.40507227 275.7668238 -8.546875 279.2109375 C-8.38832031 279.93152344 -8.22976562 280.65210938 -8.06640625 281.39453125 C-7.07640625 281.39453125 -6.08640625 281.39453125 -5.06640625 281.39453125 C-3.06640625 283.39453125 -3.06640625 283.39453125 -2.83935547 286.83447266 C-2.83967256 288.30505104 -2.85099638 289.77565267 -2.87109375 291.24609375 C-2.87392365 292.02012543 -2.87675354 292.7941571 -2.87966919 293.59164429 C-2.89087871 296.06776282 -2.91598422 298.54352175 -2.94140625 301.01953125 C-2.95143507 302.69660937 -2.96056109 304.37369314 -2.96875 306.05078125 C-2.99082051 310.16550348 -3.02535523 314.27995636 -3.06640625 318.39453125 C-5.37890625 319.01953125 -5.37890625 319.01953125 -8.06640625 319.39453125 C-9.05640625 318.73453125 -10.04640625 318.07453125 -11.06640625 317.39453125 C-11.25390625 314.76953125 -11.25390625 314.76953125 -11.06640625 312.39453125 C-14.10540976 311.5099798 -16.80335394 311.34371259 -19.95703125 311.28515625 C-27.51796577 310.62877293 -33.41720678 306.89711945 -39.81640625 303.14453125 C-41.10098631 302.41097458 -42.38664948 301.67931166 -43.67333984 300.94946289 C-46.26392084 299.47617406 -48.84808479 297.99256684 -51.42675781 296.49853516 C-55.57792528 294.09426183 -59.75534267 291.73763658 -63.93554688 289.38427734 C-66.71927167 287.81633597 -69.49847524 286.24059177 -72.27734375 284.6640625 C-84.97753566 277.47515098 -97.76384321 270.43840245 -110.5305481 263.36849976 C-112.9428504 262.03226776 -115.35458525 260.69501365 -117.76623535 259.35760498 C-119.43830865 258.43088757 -121.11122718 257.50569569 -122.78417969 256.58056641 C-128.13686058 253.61247252 -133.47514022 250.61900647 -138.7890625 247.58203125 C-139.777854 247.01871094 -140.76664551 246.45539063 -141.78540039 245.875 C-144.06640625 244.39453125 -144.06640625 244.39453125 -145.06640625 242.39453125 C-145.18004089 240.254629 -145.22799141 238.11115374 -145.2472229 235.96832275 C-145.25442742 235.30114471 -145.26163193 234.63396667 -145.26905477 233.94657111 C-145.29186086 231.70040042 -145.30737321 229.45424079 -145.32275391 227.20800781 C-145.33719887 225.60170214 -145.35195646 223.99539926 -145.36700439 222.38909912 C-145.49728814 207.72391152 -145.56313879 193.05795958 -145.61484718 178.39230728 C-145.65377489 167.54871845 -145.72215874 156.70616681 -145.82939494 145.86303353 C-145.9022293 138.24174777 -145.94067885 130.62074586 -145.95387304 122.9991262 C-145.96274264 118.44550046 -145.98702852 113.89315682 -146.04854202 109.33991241 C-146.10577424 105.05487792 -146.12046693 100.77178677 -146.10266876 96.48642731 C-146.10354743 94.91500163 -146.11981609 93.3434967 -146.15271378 91.77241516 C-146.38837185 79.9006683 -146.38837185 79.9006683 -143.10656548 76.16165257 C-140.80885714 74.6005176 -138.62329472 73.46538611 -136.06640625 72.39453125 C-134.46901611 71.47788696 -134.46901611 71.47788696 -132.83935547 70.54272461 C-131.8598291 70.02846924 -130.88030273 69.51421387 -129.87109375 68.984375 C-128.75524902 68.39390381 -127.6394043 67.80343262 -126.48974609 67.19506836 C-125.91166199 66.8916452 -125.33357788 66.58822205 -124.73797607 66.27560425 C-121.62253819 64.63935108 -118.51610154 62.98621576 -115.41015625 61.33203125 C-114.78442719 60.99892441 -114.15869812 60.66581757 -113.51400757 60.32261658 C-107.7686222 57.25428123 -102.09708402 54.06256476 -96.44140625 50.83203125 C-87.17148021 45.54261031 -77.80633338 40.45017374 -68.39916992 35.40942383 C-60.91185927 31.39550984 -53.46741712 27.31448528 -46.05078125 23.171875 C-39.38296046 19.44914978 -32.69174129 15.76863166 -26.00390625 12.08203125 C-24.14740609 11.05864768 -22.29091025 10.03526137 -20.43502808 9.01075745 C-18.697857 8.05416144 -16.95700124 7.10426645 -15.21606445 6.15454102 C-13.24938748 5.05557394 -11.30299569 3.91845346 -9.39135742 2.72631836 C-3.76718742 -0.74383955 -3.76718742 -0.74383955 0 0 Z " fill="#A3B1BD" transform="translate(146.06640625,2.60546875)"/>
<path d="M0 0 C4.50162875 1.48672968 6.15461167 5.02289855 8.41796875 8.890625 C9.30595342 10.35801761 10.19722113 11.82342721 11.09130859 13.28710938 C11.56324646 14.05982178 12.03518433 14.83253418 12.52142334 15.62866211 C15.01456805 19.62716194 17.65440618 23.52373337 20.30078125 27.421875 C20.85739944 28.24328476 21.41401764 29.06469452 21.98750305 29.91099548 C23.15478087 31.63166607 24.32293706 33.35174106 25.49191284 35.07125854 C37.80955349 53.19495808 49.93952826 71.43598102 61.92895508 89.77832031 C68.22265484 99.38818895 74.64029644 108.88945571 81.27854919 118.26548767 C85.37305751 124.0541867 89.25092393 129.94539316 93.02734375 135.9453125 C95.42442342 139.65722597 98.01315265 143.20247849 100.6875 146.71875 C102.26610322 149.46251274 102.64097363 151.87647061 103 155 C102.278125 154.649375 101.55625 154.29875 100.8125 153.9375 C97.5266844 152.84222813 96.35006822 153.3250057 93 154 C90.32307353 154.10461552 87.67287545 154.16387267 84.99609375 154.16796875 C84.23579361 154.17129715 83.47549347 154.17462555 82.69215393 154.17805481 C81.09108075 154.18309974 79.48999714 154.18546389 77.88891602 154.18530273 C75.44204484 154.18749593 72.99562006 154.20569531 70.54882812 154.22460938 C68.98958487 154.22754248 67.43033948 154.22952783 65.87109375 154.23046875 C65.14184189 154.23765427 64.41259003 154.24483978 63.66123962 154.25224304 C56.9876319 154.22223771 56.9876319 154.22223771 54 152 C52.57910156 150.14111328 52.57910156 150.14111328 51.140625 147.6953125 C47.69589883 142.06232311 44.06452544 136.58239068 40.359375 131.1171875 C39.74799683 130.21309143 39.13661865 129.30899536 38.50671387 128.37750244 C35.95179178 124.60013472 33.39372161 120.82490391 30.83544922 117.04980469 C21.36821374 103.07378312 11.909325 89.09145441 3.11712646 74.67697144 C1.97611967 72.84514492 1.97611967 72.84514492 0 71 C-0.24050903 68.21591187 -0.24050903 68.21591187 -0.22705078 64.62255859 C-0.22734283 63.96877731 -0.22763489 63.31499603 -0.22793579 62.6414032 C-0.22654065 60.47694704 -0.2109712 58.31283364 -0.1953125 56.1484375 C-0.19158302 54.64914132 -0.18873574 53.1498427 -0.18673706 51.65054321 C-0.17909548 47.70163257 -0.1594426 43.75286871 -0.1373291 39.80401611 C-0.1168819 35.77561428 -0.10773776 31.74718876 -0.09765625 27.71875 C-0.07619711 19.81243259 -0.04205495 11.90623455 0 4 C-0.33 4.99 -0.66 5.98 -1 7 C-1.99 7.33 -2.98 7.66 -4 8 C-2.87548273 5.0280615 -1.77706209 2.66559313 0 0 Z " fill="#61707D" transform="translate(142,71)"/>
<path d="M0 0 C0.33 0 0.66 0 1 0 C1.15382383 15.48107585 1.30185922 30.96219899 1.4429636 46.44339561 C1.50861331 53.63123843 1.57617226 60.81905391 1.64819336 68.00683594 C1.71094664 74.27015922 1.77015082 80.53350416 1.82505554 86.79690135 C1.85426428 90.11470959 1.88580481 93.43246934 1.92053413 96.75022507 C1.95895966 100.44983198 1.99111195 104.14944251 2.02172852 107.84912109 C2.03467453 108.95466843 2.04762054 110.06021576 2.06095886 111.19926453 C2.06799835 112.20329819 2.07503784 113.20733185 2.08229065 114.24179077 C2.09058679 115.11749411 2.09888292 115.99319744 2.10743046 116.89543724 C2 119 2 119 1 121 C1.66 121 2.32 121 3 121 C2.40138258 123.35171131 1.73075648 125.6859378 1 128 C-1.30938016 129.15469008 -2.56144402 129.106724 -5.12670898 129.06933594 C-5.97776718 129.05892273 -6.82882538 129.04850952 -7.70567322 129.03778076 C-8.62651199 129.02015686 -9.54735077 129.00253296 -10.49609375 128.984375 C-11.44057877 128.96787903 -12.38506378 128.95138306 -13.35816956 128.93438721 C-15.35805893 128.89685502 -17.35789356 128.85630465 -19.35766602 128.81298828 C-22.42132195 128.75033087 -25.48481468 128.70885839 -28.54882812 128.66796875 C-30.48961015 128.62891458 -32.43036714 128.58859216 -34.37109375 128.546875 C-35.28990829 128.53734802 -36.20872284 128.52782104 -37.15538025 128.51800537 C-38.00959061 128.49498352 -38.86380096 128.47196167 -39.74389648 128.44824219 C-40.87069069 128.42706329 -40.87069069 128.42706329 -42.02024841 128.40545654 C-44.48972465 127.89970355 -45.40597794 126.90144947 -47 125 C-3 125 -3 125 -1 126 C-1.00092179 125.35670526 -1.00184359 124.71341051 -1.00279331 124.05062199 C-1.02484855 108.4197113 -1.04141155 92.78880601 -1.05181217 77.15788364 C-1.05697512 69.59898381 -1.0640178 62.04009435 -1.07543945 54.48120117 C-1.08538632 47.89520334 -1.09185343 41.30921302 -1.09408849 34.72320789 C-1.0953956 31.23386929 -1.09848142 27.74455216 -1.10573006 24.25522041 C-1.11374398 20.36618768 -1.11399114 16.47717622 -1.11352539 12.58813477 C-1.11712067 11.42288773 -1.12071594 10.25764069 -1.12442017 9.05708313 C-1.1230455 8.00393921 -1.12167084 6.95079529 -1.12025452 5.86573792 C-1.12117631 4.94486672 -1.1220981 4.02399553 -1.12304783 3.07521915 C-1 1 -1 1 0 0 Z " fill="#404E57" transform="translate(245,99)"/>
<path d="M0 0 C4.04665101 1.50739993 5.5639685 3.90234959 7.8125 7.5 C8.43769531 8.4796875 9.06289062 9.459375 9.70703125 10.46875 C10.13371094 11.3040625 10.56039062 12.139375 11 13 C9.60804085 15.7839183 7.84424221 15.97898997 5 17 C4.67 16.34 4.34 15.68 4 15 C3.34 15 2.68 15 2 15 C2.0843001 22.26713041 2.17914257 29.534042 2.28752708 36.80085564 C2.33751898 40.17497504 2.38384837 43.54906269 2.421875 46.92333984 C2.46737328 50.80064629 2.52539279 54.67759052 2.5859375 58.5546875 C2.59748871 59.76929657 2.60903992 60.98390564 2.62094116 62.23532104 C2.64081085 63.35633209 2.66068054 64.47734314 2.68115234 65.63232422 C2.69447601 66.62271698 2.70779968 67.61310974 2.7215271 68.6335144 C2.77427446 71.18735695 2.77427446 71.18735695 5 73 C4.67 73.99 4.34 74.98 4 76 C0.27016969 72.06490375 -0.49466441 69.66670049 -0.45410156 64.28198242 C-0.45468567 63.62776306 -0.45526978 62.9735437 -0.45587158 62.29949951 C-0.4530991 60.15093727 -0.42205079 58.00378663 -0.390625 55.85546875 C-0.38315954 54.36046608 -0.37746804 52.86545359 -0.37347412 51.37043762 C-0.35824155 47.44602176 -0.31898118 43.52220321 -0.2746582 39.59802246 C-0.23365361 35.58951904 -0.21545209 31.58091857 -0.1953125 27.57226562 C-0.15248379 19.71457041 -0.08426225 11.85735963 0 4 C-0.33 4.99 -0.66 5.98 -1 7 C-1.99 7.33 -2.98 7.66 -4 8 C-2.87548273 5.0280615 -1.77706209 2.66559313 0 0 Z " fill="#8996A2" transform="translate(142,71)"/>
<path d="M0 0 C1.11375 0.495 1.11375 0.495 2.25 1 C5.13883312 2.22782871 5.13883312 2.22782871 9 2 C8.67 2.99 8.34 3.98 8 5 C7.84565842 7.94717173 7.7424397 10.87498865 7.68359375 13.82421875 C7.66281265 14.68561966 7.64203156 15.54702057 7.62062073 16.43452454 C7.55525091 19.18543544 7.49629868 21.93644156 7.4375 24.6875 C7.39430283 26.55274421 7.35068815 28.4179788 7.30664062 30.28320312 C7.19958237 34.85537124 7.09827946 39.4276351 7 44 C4 45 4 45 1.9152832 44.10375977 C1.13499756 43.63768311 0.35471191 43.17160645 -0.44921875 42.69140625 C-1.29677734 42.19189453 -2.14433594 41.69238281 -3.01757812 41.17773438 C-4.33918945 40.37819336 -4.33918945 40.37819336 -5.6875 39.5625 C-6.58017578 39.03333984 -7.47285156 38.50417969 -8.39257812 37.95898438 C-10.60063292 36.64832083 -12.80260395 35.3284301 -15 34 C-11.42638696 32.02720618 -9.75668168 31.92604907 -5.75 32.875 C-4.85796875 33.07867187 -3.9659375 33.28234375 -3.046875 33.4921875 C-2.37140625 33.65976562 -1.6959375 33.82734375 -1 34 C-1.33 35.98 -1.66 37.96 -2 40 C0.64 40.33 3.28 40.66 6 41 C5.67 29.45 5.34 17.9 5 6 C2.525 5.505 2.525 5.505 0 5 C0 3.35 0 1.7 0 0 Z " fill="#697885" transform="translate(137,280)"/>
<path d="M0 0 C2.3828125 0.99609375 2.3828125 0.99609375 5.125 2.4375 C6.03507813 2.91058594 6.94515625 3.38367188 7.8828125 3.87109375 C8.58148438 4.24363281 9.28015625 4.61617188 10 5 C10 5.33 10 5.66 10 6 C7.03 6 4.06 6 1 6 C1 16.89 1 27.78 1 39 C1.99 39.33 2.98 39.66 4 40 C3.67 40.99 3.34 41.98 3 43 C3.61875 43.103125 4.2375 43.20625 4.875 43.3125 C7 44 7 44 9 47 C6.03 46.01 3.06 45.02 0 44 C0 30.14 0 16.28 0 2 C-0.66 1.67 -1.32 1.34 -2 1 C-1.34 0.67 -0.68 0.34 0 0 Z " fill="#93A0AC" transform="translate(143,2)"/>
<path d="M0 0 C0.66 -0.33 1.32 -0.66 2 -1 C4.33333333 1.33333333 6.66666667 3.66666667 9 6 C9.99 6 10.98 6 12 6 C12 6.66 12 7.32 12 8 C12.99 8 13.98 8 15 8 C15 8.66 15 9.32 15 10 C18.465 9.505 18.465 9.505 22 9 C19.95654386 11.04345614 18.73038991 12.09623882 16 13 C13.54223633 12.15722656 13.54223633 12.15722656 10.83203125 10.640625 C9.85685547 10.10179687 8.88167969 9.56296875 7.87695312 9.0078125 C6.86568359 8.42773438 5.85441406 7.84765625 4.8125 7.25 C3.78962891 6.68539063 2.76675781 6.12078125 1.71289062 5.5390625 C-5.84760945 1.30478111 -5.84760945 1.30478111 -7 -1 C-3.51418144 -2.2020064 -3.32007656 -2.21338437 0 0 Z " fill="#8C99A5" transform="translate(72,282)"/>
<path d="M0 0 C0.66 0.33 1.32 0.66 2 1 C0.02 1.99 0.02 1.99 -2 3 C-2 3.66 -2 4.32 -2 5 C-2.66 5 -3.32 5 -4 5 C-4.33 5.66 -4.66 6.32 -5 7 C-6.96200565 7.698341 -8.92452852 8.39529188 -10.890625 9.08203125 C-13.29750289 10.0080397 -13.29750289 10.0080397 -15.9375 12.5 C-20.87735155 16.53253188 -26.75455085 17.99266949 -33 19 C-29.65573907 16.33737844 -26.0619944 14.242998 -22.3359375 12.171875 C-21.38601425 11.64197968 -21.38601425 11.64197968 -20.41690063 11.10137939 C-19.0848459 10.36019663 -17.7518495 9.62070398 -16.41796875 8.8828125 C-14.37047887 7.74749307 -12.32981658 6.60049755 -10.2890625 5.453125 C-8.99259082 4.73364775 -7.69572918 4.01487265 -6.3984375 3.296875 C-5.78696869 2.95114441 -5.17549988 2.60541382 -4.54550171 2.24920654 C-3.06268046 1.43737144 -1.53420274 0.70996975 0 0 Z " fill="#3E4B57" transform="translate(223,239)"/>
<path d="M0 0 C2.83168397 2.83168397 4.75924291 4.86212016 6.8125 8.125 C7.47185547 9.14980469 7.47185547 9.14980469 8.14453125 10.1953125 C8.42683594 10.79085937 8.70914063 11.38640625 9 12 C7.60804085 14.7839183 5.84424221 14.97898997 3 16 C2.67 15.34 2.34 14.68 2 14 C1.34 14 0.68 14 0 14 C0 9.38 0 4.76 0 0 Z " fill="#778592" transform="translate(144,72)"/>
<path d="M0 0 C1.17755859 0.13148438 1.17755859 0.13148438 2.37890625 0.265625 C4.4375 0.75 4.4375 0.75 6.4375 2.75 C6.0625 5.375 6.0625 5.375 5.4375 7.75 C0.28285266 7.26675181 -3.37800319 4.56389239 -7.5625 1.75 C-4.27151716 -0.44398856 -3.71417419 -0.46503664 0 0 Z " fill="#7F8C9A" transform="translate(129.5625,312.25)"/>
<path d="M0 0 C1.97658995 0 3.95332612 -0.00119127 5.9296875 -0.03125 C9.01568175 0.01533105 11.95818654 0.49303109 15 1 C15 1.33 15 1.66 15 2 C13.87972412 2.03758423 13.87972412 2.03758423 12.73681641 2.07592773 C9.36602733 2.19168213 5.99553217 2.31450128 2.625 2.4375 C1.449375 2.47681641 0.27375 2.51613281 -0.9375 2.55664062 C-2.05898438 2.59853516 -3.18046875 2.64042969 -4.3359375 2.68359375 C-5.89127197 2.73858032 -5.89127197 2.73858032 -7.47802734 2.79467773 C-9.99425166 2.84164223 -9.99425166 2.84164223 -12 4 C-13.32 3.01 -14.64 2.02 -16 1 C-12.65939858 -2.34060142 -4.1767615 -0.98923299 0 0 Z " fill="#94A4AF" transform="translate(56,225)"/>
<path d="M0 0 C1.32 0 2.64 0 4 0 C8 5.11111111 8 5.11111111 8 8 C7.34 8 6.68 8 6 8 C6 8.66 6 9.32 6 10 C4.68 9.34 3.36 8.68 2 8 C2.33 7.67 2.66 7.34 3 7 C2.01 6.34 1.02 5.68 0 5 C-0.75 2.9375 -0.75 2.9375 -1 1 C-0.67 0.67 -0.34 0.34 0 0 Z " fill="#717F8A" transform="translate(161,102)"/>
<path d="M0 0 C4.8274799 1.41292095 8.7162359 3.42974154 13 6 C11 8 11 8 8.8359375 8.1953125 C7.61777344 8.16050781 7.61777344 8.16050781 6.375 8.125 C5.55773437 8.10695313 4.74046875 8.08890625 3.8984375 8.0703125 C3.27195313 8.04710937 2.64546875 8.02390625 2 8 C2.33 7.01 2.66 6.02 3 5 C1.68 4.67 0.36 4.34 -1 4 C-0.67 2.68 -0.34 1.36 0 0 Z " fill="#6A7988" transform="translate(195,31)"/>
<path d="M0 0 C12.87 0.495 12.87 0.495 26 1 C26 1.33 26 1.66 26 2 C21.06722372 2.9724392 16.31938409 3.21543997 11.3125 3.25 C10.55388672 3.270625 9.79527344 3.29125 9.01367188 3.3125 C6.80078125 3.328125 6.80078125 3.328125 3 3 C2.01 2.01 1.02 1.02 0 0 Z " fill="#464F5A" transform="translate(198,224)"/>
<path d="M0 0 C0.33 1.32 0.66 2.64 1 4 C2.32 4 3.64 4 5 4 C5 5.65 5 7.3 5 9 C0.38486888 7.68139111 -3.09897612 5.78644563 -7 3 C-6.01 2.67 -5.02 2.34 -4 2 C-2.65909241 1.34870203 -1.32407669 0.68486725 0 0 Z " fill="#5F6C78" transform="translate(219,80)"/>
<path d="M0 0 C3.59391114 1.33488128 6.75490696 2.96022723 10 5 C9.01 5.33 8.02 5.66 7 6 C6.01 7.485 6.01 7.485 5 9 C3.68 8.67 2.36 8.34 1 8 C1 7.34 1 6.68 1 6 C0.34 5.67 -0.32 5.34 -1 5 C-0.34 4.34 0.32 3.68 1 3 C0.67 2.01 0.34 1.02 0 0 Z " fill="#677681" transform="translate(210,39)"/>
<path d="M0 0 C4.8274799 1.41292095 8.7162359 3.42974154 13 6 C10 8 10 8 6.5 8.0625 C3 7 3 7 1.87890625 5.3671875 C1.0625 3.4375 1.0625 3.4375 0 0 Z " fill="#7D8B97" transform="translate(153,8)"/>
<path d="M0 0 C2.97 0 5.94 0 9 0 C8.67 1.65 8.34 3.3 8 5 C5.6875 5.6875 5.6875 5.6875 3 6 C1.1875 4.75 1.1875 4.75 0 3 C0 2.01 0 1.02 0 0 Z " fill="#5D6B79" transform="translate(230,89)"/>
<path d="M0 0 C0.598125 0.185625 1.19625 0.37125 1.8125 0.5625 C4.16408762 1.22093687 4.16408762 1.22093687 7 0 C7.33 0.66 7.66 1.32 8 2 C6.23628182 3.03307771 4.46374967 4.05112049 2.6875 5.0625 C1.20830078 5.91521484 1.20830078 5.91521484 -0.30078125 6.78515625 C-3 8 -3 8 -6 7 C-5.34 7 -4.68 7 -4 7 C-3.67 5.35 -3.34 3.7 -3 2 C-2.01 2 -1.02 2 0 2 C0 1.34 0 0.68 0 0 Z " fill="#B1BBC5" transform="translate(55,88)"/>
<path d="M0 0 C3.3 1.65 6.6 3.3 10 5 C9.67 5.66 9.34 6.32 9 7 C7.68 7 6.36 7 5 7 C5 6.34 5 5.68 5 5 C3.68 4.67 2.36 4.34 1 4 C0.67 4.66 0.34 5.32 0 6 C0 5.34 0 4.68 0 4 C-0.99 4.33 -1.98 4.66 -3 5 C-1.125 1.125 -1.125 1.125 0 0 Z " fill="#82919D" transform="translate(124,273)"/>
<path d="M0 0 C8.34862385 -0.23853211 8.34862385 -0.23853211 11.75 2.3125 C13.14744246 4.19904732 13.6037919 5.70199304 14 8 C9.02790438 6.23570801 4.56561939 3.6060834 0 1 C0 0.67 0 0.34 0 0 Z " fill="#848F9B" transform="translate(106,304)"/>
<path d="M0 0 C0.66 1.32 1.32 2.64 2 4 C2.99 3.67 3.98 3.34 5 3 C8 5 8 5 8.6875 7.125 C8.790625 7.74375 8.89375 8.3625 9 9 C4.69235185 7.43358249 0.93828536 5.31663844 -3 3 C-2.01 2.01 -1.02 1.02 0 0 Z " fill="#727F8B" transform="translate(173,57)"/>
<path d="M0 0 C0 1.32 0 2.64 0 4 C0.66 4 1.32 4 2 4 C3.38232443 5.62626404 4.71937515 7.2925002 6 9 C1.1725201 7.58707905 -2.7162359 5.57025846 -7 3 C-4.74624683 0.74624683 -3.20799182 0 0 0 Z " fill="#788692" transform="translate(162,49)"/>
<path d="M0 0 C2.52588702 2.36292656 3.88820837 3.66462511 5 7 C3.68 8.32 2.36 9.64 1 11 C-1 8 -1 8 -0.625 5.5 C-0.41875 4.675 -0.2125 3.85 0 3 C0 2.01 0 1.02 0 0 Z " fill="#55636F" transform="translate(211,173)"/>
<path d="M0 0 C2.31 0 4.62 0 7 0 C6.67 0.99 6.34 1.98 6 3 C7.98 3.99 9.96 4.98 12 6 C11.67 6.99 11.34 7.98 11 9 C7.04 6.69 3.08 4.38 -1 2 C-0.67 1.34 -0.34 0.68 0 0 Z " fill="#68757F" transform="translate(196,72)"/>
<path d="M0 0 C0.66 0 1.32 0 2 0 C0.78477565 3.64567304 -0.84583354 4.48567022 -4.14453125 6.28125 C-6.70649479 7.27367377 -8.45705775 6.92470627 -11 6 C-10.67 5.01 -10.34 4.02 -10 3 C-9.01 3.33 -8.02 3.66 -7 4 C-3.22760832 2.43157375 -3.22760832 2.43157375 0 0 Z " fill="#ACB8C3" transform="translate(122,54)"/>
<path d="M0 0 C4.05281712 1.22527029 7.44360764 2.69880494 11 5 C7.88173308 6.55913346 5.32926126 5.66585225 2 5 C1.67 4.34 1.34 3.68 1 3 C-0.65 3.66 -2.3 4.32 -4 5 C-3.67 4.01 -3.34 3.02 -3 2 C-2.01 2 -1.02 2 0 2 C0 1.34 0 0.68 0 0 Z " fill="#717F93" transform="translate(173,19)"/>
<path d="M0 0 C0 0.66 0 1.32 0 2 C-1.7664657 3.0076952 -3.53833823 4.00591714 -5.3125 5 C-6.79169922 5.8353125 -6.79169922 5.8353125 -8.30078125 6.6875 C-11 8 -11 8 -14 8 C-12.1478397 4.29567941 -9.78891816 2.67309445 -5.9375 1.3125 C-5.24527344 1.06113281 -4.55304688 0.80976563 -3.83984375 0.55078125 C-2 0 -2 0 0 0 Z " fill="#45505C" transform="translate(167,312)"/>
<path d="M0 0 C0.66 0.99 1.32 1.98 2 3 C0.35 5.64 -1.3 8.28 -3 11 C-3.66 10.01 -4.32 9.02 -5 8 C-3.62845496 5.04590299 -2.01136276 2.55991624 0 0 Z " fill="#9DACB6" transform="translate(131,155)"/>
<path d="M0 0 C0.66 1.32 1.32 2.64 2 4 C1.34 4 0.68 4 0 4 C-0.33 4.66 -0.66 5.32 -1 6 C-3.32156597 6.40729228 -5.6568787 6.74438677 -8 7 C-6.5361389 2.60841671 -4.02168662 2.12052567 0 0 Z " fill="#B3BEC7" transform="translate(28,65)"/>
<path d="M0 0 C0.94875 0.350625 1.8975 0.70125 2.875 1.0625 C2.875 2.0525 2.875 3.0425 2.875 4.0625 C0.565 3.7325 -1.745 3.4025 -4.125 3.0625 C-4.455 2.0725 -4.785 1.0825 -5.125 0.0625 C-3.125 -0.9375 -3.125 -0.9375 0 0 Z " fill="#98A4AF" transform="translate(72.125,242.9375)"/>
<path d="M0 0 C2.62187494 1.04874998 3.79371361 1.64931313 5.25 4.125 C5.4975 4.74375 5.745 5.3625 6 6 C4.35 6.33 2.7 6.66 1 7 C1 6.34 1 5.68 1 5 C-0.45833358 3.37485532 -0.45833358 3.37485532 -2 2 C-1.34 1.34 -0.68 0.68 0 0 Z " fill="#4B5765" transform="translate(226,197)"/>
<path d="M0 0 C2.52588702 2.36292656 3.88820837 3.66462511 5 7 C4.21625 6.814375 3.4325 6.62875 2.625 6.4375 C0.02910225 5.74037734 0.02910225 5.74037734 -2 7 C-1.125 1.125 -1.125 1.125 0 0 Z " fill="#72808C" transform="translate(155,89)"/>
<path d="M0 0 C4.10801767 1.18676066 5.89448334 1.89448334 9 5 C6.03 5 3.06 5 0 5 C0 3.35 0 1.7 0 0 Z " fill="#838F98" transform="translate(144,3)"/>
<path d="M0 0 C0.99 0.33 1.98 0.66 3 1 C3 2.98 3 4.96 3 7 C3.66 7 4.32 7 5 7 C4.67 7.99 4.34 8.98 4 10 C1.28312788 7.65361044 0.05484124 5.42823404 -1 2 C-0.67 1.34 -0.34 0.68 0 0 Z " fill="#727E8B" transform="translate(148,145)"/>
<path d="M0 0 C0 0.99 0 1.98 0 3 C-1.2065625 3.433125 -1.2065625 3.433125 -2.4375 3.875 C-5.1326468 4.73262568 -5.1326468 4.73262568 -6 7 C-6.66 5.68 -7.32 4.36 -8 3 C-3.375 0 -3.375 0 0 0 Z " fill="#B2BCC5" transform="translate(11,76)"/>
<path d="M0 0 C-0.33 1.32 -0.66 2.64 -1 4 C-0.34 4 0.32 4 1 4 C0.67 4.66 0.34 5.32 0 6 C-3.465 4.02 -3.465 4.02 -7 2 C-5.26578631 -1.46842738 -3.40984787 -1.13661596 0 0 Z " fill="#6E7C88" transform="translate(191,66)"/>
<path d="M0 0 C2 1 2 1 2.6875 2.9375 C3 5 3 5 2 7 C2.99 7.99 3.98 8.98 5 10 C2.5625 9.375 2.5625 9.375 0 8 C-1.47368421 2.94736842 -1.47368421 2.94736842 0 0 Z " fill="#9BAAB6" transform="translate(4,240)"/>
<path d="M0 0 C0.66 0.33 1.32 0.66 2 1 C1.67 1.99 1.34 2.98 1 4 C1.61875 4.103125 2.2375 4.20625 2.875 4.3125 C5 5 5 5 7 8 C4.03 7.01 1.06 6.02 -2 5 C-1 1 -1 1 0 0 Z " fill="#85909E" transform="translate(145,41)"/>
<path d="M0 0 C0.66 0.33 1.32 0.66 2 1 C0.35 3.64 -1.3 6.28 -3 9 C-3.66 8.01 -4.32 7.02 -5 6 C-4.34 4.68 -3.68 3.36 -3 2 C-2.01 2 -1.02 2 0 2 C0 1.34 0 0.68 0 0 Z " fill="#99A5B5" transform="translate(112,186)"/>
<path d="M0 0 C1.2065625 0.0309375 1.2065625 0.0309375 2.4375 0.0625 C2.1075 0.7225 1.7775 1.3825 1.4375 2.0625 C0.7775 2.0625 0.1175 2.0625 -0.5625 2.0625 C-0.8925 3.0525 -1.2225 4.0425 -1.5625 5.0625 C-2.5525 5.0625 -3.5425 5.0625 -4.5625 5.0625 C-3.43829114 0.08386076 -3.43829114 0.08386076 0 0 Z " fill="#AFBBC3" transform="translate(70.5625,42.9375)"/>
<path d="M0 0 C0.66 0.66 1.32 1.32 2 2 C1.34 2 0.68 2 0 2 C0 2.66 0 3.32 0 4 C-2.31 4.66 -4.62 5.32 -7 6 C-7.33 5.34 -7.66 4.68 -8 4 C-5.36 2.68 -2.72 1.36 0 0 Z " fill="#B3BDC7" transform="translate(85,34)"/>
<path d="M0 0 C1.485 0.99 1.485 0.99 3 2 C3.99 2 4.98 2 6 2 C5.67 3.32 5.34 4.64 5 6 C3.02 5.01 1.04 4.02 -1 3 C-0.67 2.01 -0.34 1.02 0 0 Z " fill="#84929B" transform="translate(98,297)"/>
<path d="M0 0 C-0.33 0.99 -0.66 1.98 -1 3 C-2.875 3.875 -2.875 3.875 -5 4 C-6.75 2.5625 -6.75 2.5625 -8 1 C-2.25 -1.125 -2.25 -1.125 0 0 Z " fill="#8F9BA7" transform="translate(62,274)"/>
<path d="M0 0 C5.75 -0.125 5.75 -0.125 8 1 C7.67 1.99 7.34 2.98 7 4 C4.97954558 3.39816251 2.97888961 2.72693904 1 2 C0.67 1.34 0.34 0.68 0 0 Z " fill="#97A3B1" transform="translate(22,257)"/>
<path d="M0 0 C0.66 0.66 1.32 1.32 2 2 C1 4 0 6 -1 8 C-2.98 4.535 -2.98 4.535 -5 1 C-3.68 1.33 -2.36 1.66 -1 2 C-0.67 1.34 -0.34 0.68 0 0 Z " fill="#47535D" transform="translate(198,216)"/>
<path d="M0 0 C3.77545388 1.09068668 6.47043472 1.9083091 9 5 C5.95613276 5.08226668 3.92824652 4.97608217 1 4 C0.3125 1.9375 0.3125 1.9375 0 0 Z " fill="#6F7C87" transform="translate(186,26)"/>
<path d="M0 0 C1.65 0 3.3 0 5 0 C2.47043472 3.0916909 -0.22454612 3.90931332 -4 5 C-4 4.34 -4 3.68 -4 3 C-2.68 2.67 -1.36 2.34 0 2 C0 1.34 0 0.68 0 0 Z " fill="#46555E" transform="translate(172,307)"/>
<path d="M0 0 C2.475 0.99 2.475 0.99 5 2 C4.34 3.32 3.68 4.64 3 6 C2.01 5.67 1.02 5.34 0 5 C0 3.35 0 1.7 0 0 Z " fill="#7D8B97" transform="translate(137,280)"/>
<path d="M0 0 C0 0.66 0 1.32 0 2 C-2.35438733 3.42944945 -3.48032433 4.08661261 -6.25 3.625 C-6.8275 3.41875 -7.405 3.2125 -8 3 C-8 2.34 -8 1.68 -8 1 C-2.25 0 -2.25 0 0 0 Z " fill="#B2BDC7" transform="translate(76,81)"/>
<path d="M0 0 C0.33 0.99 0.66 1.98 1 3 C-0.98 3.66 -2.96 4.32 -5 5 C-5 3.68 -5 2.36 -5 1 C-2 0 -2 0 0 0 Z " fill="#45525C" transform="translate(191,297)"/>
<path d="M0 0 C1.32 0.33 2.64 0.66 4 1 C1.37801226 3.15377564 -0.64404172 4.40072174 -4 5 C-2.68 3.35 -1.36 1.7 0 0 Z " fill="#354050" transform="translate(262,257)"/>
<path d="M0 0 C0.66 1.32 1.32 2.64 2 4 C1.01 4.99 0.02 5.98 -1 7 C-1.66 5.35 -2.32 3.7 -3 2 C-2.01 1.34 -1.02 0.68 0 0 Z " fill="#9EABB4" transform="translate(115,179)"/>
<path d="M0 0 C1.65 0.99 3.3 1.98 5 3 C4.01 3.99 3.02 4.98 2 6 C1.01 5.01 0.02 4.02 -1 3 C-0.67 2.01 -0.34 1.02 0 0 Z " fill="#6F7E8A" transform="translate(154,154)"/>
<path d="M0 0 C0.99 0 1.98 0 3 0 C3.33 1.98 3.66 3.96 4 6 C3.01 6.33 2.02 6.66 1 7 C1.020625 6.21625 1.04125 5.4325 1.0625 4.625 C1.18684063 2.01885039 1.18684063 2.01885039 0 0 Z " fill="#6A7985" transform="translate(178,126)"/>
<path d="M0 0 C1.32 0 2.64 0 4 0 C3 3 3 3 1.125 4.25 C-1 5 -1 5 -4 4 C-3.34 4 -2.68 4 -2 4 C-1.34 2.68 -0.68 1.36 0 0 Z " fill="#B6C3CC" transform="translate(53,91)"/>
<path d="M0 0 C0.66 0.33 1.32 0.66 2 1 C2 2.32 2 3.64 2 5 C0.35 4.67 -1.3 4.34 -3 4 C-3 3.34 -3 2.68 -3 2 C-2.01 1.34 -1.02 0.68 0 0 Z " fill="#B0BAC3" transform="translate(128,10)"/>
</svg>
